<svg width="56" height="56" fill="none" xmlns="http://www.w3.org/2000/svg"><path d="M22.225 39.375H0v2.975l4.025 4.025h21.35v-1.75H4.725L1.75 41.65v-.525h19.775l1.75 1.75h2.1v-1.75h-1.4l-1.75-1.75zM7 9.625c0-.963.787-1.75 1.75-1.75h16.625v-1.75H8.75a3.51 3.51 0 00-3.5 3.5v28H7v-28zm26.775 33.25l-1.75 1.75h-1.4v1.75h2.1l1.75-1.75H54.25v.525l-2.975 2.975h-20.65v1.75h21.35L56 45.85v-2.975H33.775zM49 13.125v28h1.75v-28a3.51 3.51 0 00-3.5-3.5H30.625v1.75H47.25c.962 0 1.75.787 1.75 1.75zm-21.875 21h1.75v17.5h-1.75v-17.5zm0-12.25h1.75v7h-1.75v-7zm0-17.5h1.75v12.25h-1.75V4.375zm.875 28h4.9l-2.012 2.013 1.224 1.224 4.113-4.112-4.113-4.113-1.225 1.226 2.013 2.012H28c-2.887 0-5.25-2.363-5.25-5.25H21c0 3.85 3.15 7 7 7zm-4.113-17.238l-4.112 4.113 4.113 4.113 1.224-1.226-2.012-2.012H28c2.887 0 5.25 2.363 5.25 5.25H35c0-3.85-3.15-7-7-7h-4.9l2.012-2.012-1.224-1.226zM10.5 11.375h14.875v-1.75H8.75v28h16.625v-1.75H10.5v-24.5zm35 28H30.625v1.75H47.25v-28H30.625v1.75H45.5v24.5z" fill="#699DFF"/></svg>