<svg width="56" height="56" fill="none" xmlns="http://www.w3.org/2000/svg"><path d="M40.25 32.375V31.5c0-.087 0-.262-.087-.35L35 19.075v-5.95a4.333 4.333 0 00-4.375-4.375H24.5v1.75h6.125c1.487 0 2.625 1.137 2.625 2.625v6.125c0 .087 0 .262.087.35l5.075 11.9h-4.287c-.525 0-.875.35-.875.875v8.75c0 1.487-1.138 2.625-2.625 2.625h-15.75c-.525 0-.875.35-.875.875v6.65l-7.263-7.262a.794.794 0 00-.612-.263h-1.75c-1.487 0-2.625-1.138-2.625-2.625v-28c0-1.488 1.138-2.625 2.625-2.625H19.25V8.75H4.375A4.333 4.333 0 000 13.125v28A4.333 4.333 0 004.375 45.5h1.4l8.487 8.487c.175.175.35.263.613.263.088 0 .262 0 .35-.087.35-.088.525-.438.525-.788V45.5h14.875A4.333 4.333 0 0035 41.125V33.25h4.375c.525 0 .875-.35.875-.875zM51.625 1.75h-26.25A4.333 4.333 0 0021 6.125v7.7L15.838 25.9c-.088.088-.088.263-.088.35v.875c0 .525.35.875.875.875H21v6.125a4.333 4.333 0 004.375 4.375H31.5v-1.75h-6.125c-1.488 0-2.625-1.138-2.625-2.625v-7c0-.525-.35-.875-.875-.875h-4.288l5.076-11.9c.087-.088.087-.262.087-.35V6.125c0-1.487 1.137-2.625 2.625-2.625h26.25c1.487 0 2.625 1.138 2.625 2.625v28c0 1.487-1.138 2.625-2.625 2.625h-1.75a.794.794 0 00-.612.263L42 44.275v-6.65c0-.525-.35-.875-.875-.875H36.75v1.75h3.5v7.875c0 .35.175.7.525.788.087.087.263.087.35.087a.794.794 0 00.612-.263l8.488-8.487h1.4A4.333 4.333 0 0056 34.125v-28a4.333 4.333 0 00-4.375-4.375zm-13.125 7h12.25v1.75H38.5V8.75zm0 3.5h12.25V14H38.5v-1.75zm0 3.5h8.75v1.75H38.5v-1.75zM5.25 14h10.5v1.75H5.25V14zm0 3.5h10.5v1.75H5.25V17.5zm0 3.5h7v1.75h-7V21z" fill="#699DFF"/></svg>