<svg width="56" height="56" fill="none" xmlns="http://www.w3.org/2000/svg"><path d="M45.5 16.625V33.25h1.75V16.625a6.087 6.087 0 00-6.125-6.125h-3.5v1.75h3.5a4.333 4.333 0 014.375 4.375zm-35 0a4.333 4.333 0 014.375-4.375h3.5V10.5h-3.5a6.087 6.087 0 00-6.125 6.125V33.25h1.75V16.625zM20.125 52.5h15.75v1.75h-15.75V52.5zm7-19.25h1.75V35h-1.75v-1.75zm-3.5 0h1.75V35h-1.75v-1.75zm7 0h1.75V35h-1.75v-1.75zm-12.25-18.025V17.5c0 1.925 1.225 3.5 2.625 3.5h14c1.4 0 2.625-1.575 2.625-3.5v-2.188l-5.775-3.324c.875-1.138 1.4-2.713 1.4-4.55 0-2.625-.612-5.688-5.25-5.688-4.637 0-5.25 3.063-5.25 5.688 0 1.75.525 3.324 1.4 4.462l-5.775 3.325zm17.5 2.275c0 1.05-.612 1.75-.875 1.75H21c-.262 0-.875-.7-.875-1.75v-1.225l5.25-3.062A4.63 4.63 0 0028 14c.962 0 1.75-.262 2.538-.787l5.337 3.062V17.5zM28 3.5c2.625 0 3.5.963 3.5 3.938 0 2.362-1.225 4.812-3.5 4.812s-3.5-2.45-3.5-4.813c0-2.974.875-3.937 3.5-3.937zM14.875 40.688c0-2.626-.613-5.688-5.25-5.688-4.638 0-5.25 3.063-5.25 5.688 0 1.75.525 3.325 1.4 4.462L0 48.475v2.275c0 1.925 1.225 3.5 2.625 3.5h14c1.4 0 2.625-1.575 2.625-3.5v-2.188l-5.775-3.325c.875-1.137 1.4-2.712 1.4-4.55zm-5.25-3.938c2.625 0 3.5.962 3.5 3.938 0 2.362-1.225 4.812-3.5 4.812s-3.5-2.45-3.5-4.813c0-2.974.875-3.937 3.5-3.937zm7.875 14c0 1.05-.613 1.75-.875 1.75h-14c-.263 0-.875-.7-.875-1.75v-1.225L7 46.462a4.63 4.63 0 002.625.788c.963 0 1.75-.263 2.537-.788l5.338 3.063v1.225zm32.725-5.513c.875-1.137 1.4-2.712 1.4-4.55 0-2.624-.612-5.687-5.25-5.687s-5.25 3.063-5.25 5.688c0 1.75.525 3.325 1.4 4.462l-5.775 3.325v2.275c0 1.925 1.225 3.5 2.625 3.5h14c1.4 0 2.625-1.575 2.625-3.5v-2.188l-5.775-3.325zm-3.85-8.487c2.625 0 3.5.962 3.5 3.938 0 2.362-1.225 4.812-3.5 4.812s-3.5-2.45-3.5-4.813c0-2.974.875-3.937 3.5-3.937zm7.875 14c0 1.05-.612 1.75-.875 1.75h-14c-.263 0-.875-.7-.875-1.75v-1.225l5.25-3.063a4.63 4.63 0 002.625.788c.962 0 1.75-.263 2.538-.788l5.337 3.063v1.225zM28 24.5a9.597 9.597 0 00-9.625 9.625A9.597 9.597 0 0028 43.75a9.597 9.597 0 009.625-9.625A9.597 9.597 0 0028 24.5zM28 42a7.842 7.842 0 01-7.875-7.875c0-4.375 3.5-7.875 7.875-7.875s7.875 3.5 7.875 7.875S32.375 42 28 42z" fill="#699DFF"/></svg>