<svg width="56" height="56" fill="none" xmlns="http://www.w3.org/2000/svg"><path d="M52.5 7H19.25v1.75h31.5V24.5h-31.5v1.75H52.5V7zm-42 3.5c2.887 0 5.25-2.363 5.25-5.25C15.75 2.362 13.387 0 10.5 0 7.612 0 5.25 2.362 5.25 5.25c0 2.887 2.362 5.25 5.25 5.25zm0-8.75a3.51 3.51 0 013.5 3.5 3.51 3.51 0 01-3.5 3.5A3.51 3.51 0 017 5.25a3.51 3.51 0 013.5-3.5zm7 1.75v1.75h36.75V31.5H17.5V19.25h14v-7H7c-3.85 0-7 3.15-7 7v14h7V24.5H5.25v7h-3.5V19.25C1.75 16.363 4.112 14 7 14h22.75v3.5h-14v15.75H56V3.5H17.5zM19.25 28H52.5v1.75H19.25V28zm32.375 14.438c0-2.626-.612-5.688-5.25-5.688s-5.25 3.063-5.25 5.688c0 1.75.525 3.325 1.4 4.55l-4.9 2.8-5.688-2.888c.875-1.137 1.313-2.712 1.313-4.462 0-2.626-.612-5.688-5.25-5.688-4.637 0-5.25 3.063-5.25 5.688 0 1.75.525 3.325 1.313 4.462l-5.688 2.888-4.9-2.8c.875-1.138 1.4-2.713 1.4-4.55 0-2.626-.613-5.688-5.25-5.688-4.638 0-5.25 3.063-5.25 5.688 0 1.75.525 3.325 1.4 4.55L0 50.224V52.5C0 54.425 1.225 56 2.625 56h50.75c1.4 0 2.625-1.575 2.625-3.5v-2.275L50.225 46.9c.875-1.137 1.4-2.712 1.4-4.462zm-5.25-3.938c2.625 0 3.5.962 3.5 3.938 0 2.362-1.225 4.812-3.5 4.812s-3.5-2.45-3.5-4.813c0-2.974.875-3.937 3.5-3.937zM28 38.5c2.625 0 3.5.962 3.5 3.938 0 2.362-1.225 4.812-3.5 4.812s-3.5-2.45-3.5-4.813c0-2.974.875-3.937 3.5-3.937zm-18.375 0c2.625 0 3.5.962 3.5 3.938 0 2.362-1.225 4.812-3.5 4.812s-3.5-2.45-3.5-4.813c0-2.974.875-3.937 3.5-3.937zm44.625 14c0 1.05-.612 1.75-.875 1.75H2.625c-.263 0-.875-.7-.875-1.75v-1.225l5.338-3.063c.7.525 1.574.788 2.537.788.963 0 1.838-.263 2.537-.788l5.338 3.063v2.1h1.75v-2.1l6.212-3.063A4.56 4.56 0 0028 49c.962 0 1.837-.263 2.538-.788l6.212 3.063v2.1h1.75v-2.1l5.337-3.063c.788.525 1.575.788 2.538.788.962 0 1.837-.263 2.538-.788l5.337 3.063V52.5zM9.625 15.75h1.75v1.75h-1.75v-1.75zm0 3.5h1.75V21h-1.75v-1.75z" fill="#699DFF"/></svg>