<svg width="56" height="56" fill="none" xmlns="http://www.w3.org/2000/svg"><path d="M32.997 39.231l-4.198 2.4v3.168h4.8V56H22.4V44.8h4.8v-3.168l-4.198-2.4L14.4 46.4h-3.2v4.8H0V40h11.2v4.8h3.2l7.408-6.25-5.408-3.09a.84.84 0 01-.4-.72v-13.6c0-.32.16-.56.4-.72l5.29-3.023L14.4 11.2h-3.2V16H0V4.8h11.2v4.8h3.2l8.516 7.097 4.284-2.448V11.2h-4.8V0h11.2v11.2h-4.8v3.049l4.284 2.448L41.6 9.6h3.2V4.8H56V16H44.8v-4.8h-3.2l-7.29 6.197 5.29 3.023c.24.16.4.4.4.72v13.6c0 .32-.16.56-.4.72l-5.375 3.072 7.374 6.268h3.2V40H56v11.2H44.8v-4.8h-3.2l-8.601-7.169zM9.597 9.6V6.4h-8v8h8V9.6zm36.802 1.6v3.2h8v-8h-8v4.8zM9.598 44.8v-3.2h-8v8h8v-4.8zm36.8 1.6v3.2h8v-8h-8v4.8zm-17.6-36.8h3.2v-8h-8v8h4.8zm-1.6 36.8h-3.2v8h8v-8h-4.8zm-22.4-20.8h6.4V32h-6.4v-6.4zm1.6 1.6v3.2h3.2v-3.2h-3.2zm38.4 0h6.4v6.4h-6.4v-6.4zm1.6 1.6V32h3.2v-3.2h-3.2zm-8-6.47l-9.6 5.52v11.76l9.6-5.52V22.33zm-20-1.49l9.6 5.44 9.6-5.44-9.6-5.44-9.6 5.44zm8.8 7.08l-9.6-5.52v11.76l9.6 5.52V27.92z" fill="#699DFF"/></svg>