<svg width="56" height="56" fill="none" xmlns="http://www.w3.org/2000/svg"><path d="M38.5 23.625h-5.25v-1.75h3.5v-5.25h-3.5v-1.75h5.25v8.75zM23.625 5.25h-1.75v-3.5h-5.25v3.5h-1.75V0h8.75v5.25zm0 33.25h-8.75v-5.25h1.75v3.5h5.25v-3.5h1.75v5.25zM5.25 23.625H0v-8.75h5.25v1.75h-3.5v5.25h3.5v1.75zm24.5 12.609l-4.121-4.113 1.242-1.242 2.879 2.887 4.016-4.016-2.887-2.879 1.242-1.242 4.113 4.121-6.484 6.484zM6.379 12.871L2.266 8.75 8.75 2.266l4.121 4.113L11.63 7.62 8.75 4.734 4.734 8.75l2.887 2.879L6.38 12.87zM8.75 36.234L2.266 29.75l4.113-4.121L7.62 26.87l-2.886 2.88 4.016 4.016 2.879-2.887 1.242 1.242-4.121 4.113zm23.371-23.363L30.88 11.63l2.887-2.879-4.016-4.016-2.879 2.887L25.63 6.38l4.121-4.113 6.484 6.484-4.113 4.121z" fill="#699DFF"/><path d="M19.25 34.125c-8.199 0-14.875-6.676-14.875-14.875S11.051 4.375 19.25 4.375s14.875 6.676 14.875 14.875-6.676 14.875-14.875 14.875zm0-28c-7.236 0-13.125 5.889-13.125 13.125s5.889 13.125 13.125 13.125 13.125-5.889 13.125-13.125S26.486 6.125 19.25 6.125z" fill="#699DFF"/><path d="M19.25 28.875c-5.311 0-9.625-4.314-9.625-9.625s4.314-9.625 9.625-9.625 9.625 4.314 9.625 9.625-4.314 9.625-9.625 9.625zm0-17.5c-4.34 0-7.875 3.535-7.875 7.875s3.535 7.875 7.875 7.875 7.875-3.535 7.875-7.875-3.535-7.875-7.875-7.875z" fill="#699DFF"/><path d="M19.25 23.625a4.377 4.377 0 01-4.375-4.375 4.377 4.377 0 014.375-4.375 4.377 4.377 0 014.375 4.375 4.377 4.377 0 01-4.375 4.375zm0-7a2.633 2.633 0 00-2.625 2.625 2.633 2.633 0 002.625 2.625 2.633 2.633 0 002.625-2.625 2.633 2.633 0 00-2.625-2.625zm28 2.625h-3.5V21h3.5v-1.75zm2.625 20.125h-4.734l-2.012-2.004 1.242-1.242 1.488 1.496h4.016v1.75zm-26.25.875h-1.75V56h1.75V40.25z" fill="#699DFF"/><path d="M44.625 48.125h-10.5a4.377 4.377 0 01-4.375-4.375h1.75a2.633 2.633 0 002.625 2.625h10.5A4.377 4.377 0 0049 42v-9.625h5.25v-.709L49 18.541V10.5h-8.75c-1.453 0-1.75.297-1.75 1.75v.875h-1.75v-.875c0-2.424 1.076-3.5 3.5-3.5h10.5v9.459L56 31.334v2.791h-5.25V42a6.132 6.132 0 01-6.125 6.125z" fill="#699DFF"/><path d="M42 47.25h-1.75V56H42v-8.75zm7.875-36.75V8.75c1.934 0 3.5-1.566 3.5-3.5s-1.566-3.5-3.5-3.5h-24.5V0h24.5a5.254 5.254 0 015.25 5.25 5.254 5.254 0 01-5.25 5.25z" fill="#699DFF"/></svg>