<svg width="180" height="45" fill="none" xmlns="http://www.w3.org/2000/svg"><path d="M0 43.848l.782-.454c.165.439.481.712 1.068.712.541 0 .736-.228.736-.485 0-.349-.315-.485-.992-.682-.722-.212-1.399-.516-1.399-1.395s.722-1.394 1.52-1.394c.751 0 1.338.394 1.653 1.046l-.766.44c-.166-.35-.422-.592-.888-.592-.376 0-.601.197-.601.47 0 .288.18.44.872.652.737.227 1.504.485 1.504 1.425 0 .863-.692 1.409-1.67 1.409C.873 45 .257 44.545 0 43.848zm9.7-1.273c0-.894-.647-1.53-1.49-1.53-.842 0-1.488.636-1.488 1.53s.646 1.516 1.489 1.516c.842 0 1.488-.622 1.488-1.516zm-3.88 0c0-1.364 1.067-2.425 2.39-2.425a2.403 2.403 0 012.406 2.425C10.617 43.94 9.55 45 8.212 45c-1.339 0-2.391-1.06-2.391-2.425zm8.33-1.455v1.107h1.79v.879h-1.79v1.803h-.917v-4.653h2.752v.864H14.15zm7.534 0h-1.248v3.789h-.902V41.12h-1.248v-.864h3.398v.864zm2.166-.864h.947l.887 3.44.963-3.44h.782l.962 3.44.887-3.44h.963l-1.294 4.653H27.91l-.872-3.077-.858 3.077h-1.037l-1.293-4.653zm11.037 2.956l-.631-1.895-.632 1.895h1.263zm.286.848h-1.835l-.27.834h-.978l1.594-4.638h1.128l1.624 4.653h-.992l-.271-.849zm4.601-1.576h.933c.346 0 .631-.303.631-.697 0-.379-.285-.682-.631-.682h-.933v1.38zm.692.803h-.692v1.622h-.917v-4.653h1.85c.857 0 1.534.697 1.534 1.546 0 .591-.361 1.106-.888 1.364l1.023 1.758h-.977l-.933-1.637zm7.294.743v.879h-2.858v-4.653h2.812v.864h-1.91v1h1.745v.864h-1.745v1.046h1.955zm9.05 0v.879h-2.856v-4.653h2.827v.864h-1.91v1h1.744v.864h-1.744v1.046h1.94zm6.211-3.774v4.653h-.691l-1.985-2.85v2.85h-.903v-4.653h.692l1.97 2.834v-2.834h.917zm7.369 2.501c0 1.349-.948 2.228-2.271 2.228-1.444 0-2.466-1.091-2.466-2.41 0-1.349 1.037-2.425 2.42-2.425.873 0 1.625.44 2.016 1.076l-.782.455c-.21-.379-.677-.652-1.233-.652-.872 0-1.504.652-1.504 1.53 0 .865.617 1.517 1.58 1.517.72 0 1.187-.35 1.352-.88h-1.398v-.818h2.316v.379h-.03zm2.616 2.152h.918v-4.653h-.918v4.653zm7.339-4.653v4.653h-.692l-1.985-2.85v2.85h-.917v-4.653h.691l1.985 2.834v-2.834h.918zm5.684 3.774v.879h-2.857v-4.653h2.827v.864h-1.91v1h1.744v.864H84.09v1.046h1.94zm5.473 0v.879h-2.857v-4.653h2.827v.864h-1.91v1h1.745v.864h-1.744v1.046h1.94zm3.534-1.546h.933c.346 0 .631-.303.631-.697 0-.379-.285-.682-.631-.682h-.933v1.38zm.692.803h-.692v1.622h-.917v-4.653h1.85c.857 0 1.534.697 1.534 1.546 0 .591-.361 1.106-.888 1.364l1.023 1.758h-.978l-.932-1.637zm4.421 1.622h.917v-4.653h-.917v4.653zm7.338-4.653v4.653h-.691l-1.985-2.85v2.85h-.903v-4.653h.692l1.97 2.834v-2.834h.917zm7.369 2.501c0 1.349-.948 2.228-2.271 2.228-1.443 0-2.466-1.091-2.466-2.41 0-1.349 1.038-2.425 2.421-2.425.872 0 1.624.44 2.015 1.076l-.782.455c-.21-.379-.677-.652-1.233-.652-.872 0-1.504.652-1.504 1.53 0 .865.617 1.517 1.579 1.517.722 0 1.188-.35 1.354-.88h-1.399v-.818h2.316v.379h-.03zm8.834 1.273v.879h-2.662v-4.653h.903v3.774h1.759zm5.038-.818l-.632-1.91-.631 1.894h1.263v.016zm.285.848h-1.834l-.271.834h-.992l1.609-4.638h1.128l1.624 4.653h-.993l-.271-.849zm6.181-.56a.523.523 0 00-.541-.546H133.6v1.091h1.053a.523.523 0 00.541-.545zm-1.579-2.395v1.03h.917c.286 0 .496-.212.496-.515 0-.303-.21-.515-.496-.515h-.917zm2.481 2.455c0 .803-.646 1.349-1.443 1.349h-1.955v-4.653h1.819c.782 0 1.399.53 1.399 1.304 0 .394-.166.712-.436.924.391.212.616.591.616 1.076zm6.256-.985c0-.894-.647-1.53-1.489-1.53-.842 0-1.489.636-1.489 1.53s.647 1.516 1.489 1.516c.827.015 1.489-.622 1.489-1.516zm-3.895 0c0-1.364 1.068-2.425 2.391-2.425a2.403 2.403 0 012.406 2.425A2.394 2.394 0 01140.848 45c-1.338 0-2.391-1.06-2.391-2.425zm8.331-.091h.932c.346 0 .632-.303.632-.697 0-.379-.286-.682-.632-.682h-.932v1.38zm.692.803h-.692v1.622h-.917v-4.653h1.849c.857 0 1.534.697 1.534 1.546 0 .591-.361 1.106-.887 1.364l1.022 1.758h-.977l-.932-1.637zm6.842-.075l-.632-1.895-.631 1.895h1.263zm.27.848h-1.834l-.271.834h-.977l1.609-4.653h1.128l1.624 4.653h-.993l-.286-.834zm6.421-2.94h-1.248v3.789h-.917V41.12h-1.233v-.864h3.398v.864zm5.895 1.455c0-.894-.646-1.53-1.489-1.53-.842 0-1.488.636-1.488 1.53s.646 1.516 1.488 1.516c.843 0 1.489-.622 1.489-1.516zm-3.88 0c0-1.364 1.068-2.425 2.391-2.425 1.339 0 2.406 1.061 2.406 2.425 0 1.364-1.067 2.425-2.406 2.425-1.338 0-2.391-1.06-2.391-2.425zm8.316-.091h.933c.345 0 .631-.303.631-.697 0-.379-.286-.682-.631-.682h-.933v1.38zm.692.803h-.692v1.622h-.917v-4.653h1.85c.857 0 1.533.697 1.533 1.546 0 .591-.36 1.106-.887 1.364l1.023 1.758h-.978l-.932-1.637zm6.376-.197v1.819h-.902V43.09l-1.579-2.834h1.022l1.008 1.94.992-1.94h1.038l-1.579 2.834zM160.451 0c-4.105 0-7.594 2.622-8.932 6.305l-7.158 19.793h-19.82a.947.947 0 01-.947-.955V.015h-9.504v26.083c0 5.29 4.256 9.578 9.504 9.578l27.398.03 3.489-9.608h11.94l2.331 6.426c.707 1.94 2.511 3.168 4.451 3.168H180L169.429 6.426C168.135 2.683 164.617 0 160.451 0zm-.421 9.578l3.384 9.336h-6.752l3.368-9.336zM101.744 0v22.612a.947.947 0 01-1.669.622L89.504 4.774C87.85 1.94 84.797.03 81.308.03c-5.248 0-9.504 4.29-9.504 9.579v16.52H46.843a.947.947 0 01-.947-.955V21.46h22.902v-7.184H45.895v-3.668c0-.576.42-1 .947-1h21.955V.03H47.233l-2.782 7.502c-.676 1.834-2.42 3.138-4.466 3.138h-3.594v15.443c0 5.29 4.256 9.579 9.504 9.579h35.413V13.155a.948.948 0 011.76-.5c.03.06.045.091.06.106l10.39 18.126c1.655 2.865 4.723 4.79 8.241 4.79 5.249 0 9.504-4.29 9.504-9.579V0h-9.519z" fill="#fff"/><path d="M9.549.03C4.301.03.045 4.32.045 9.61a9.56 9.56 0 005.775 8.805l13.804 5.911a.96.96 0 01.497.834c0 .5-.391.909-.873.954H.045v9.579h24.226v-.015c5.052-.213 9.098-4.41 9.098-9.564a9.565 9.565 0 00-6.361-9.032l-13.143-5.623a.955.955 0 01-.617-.894c0-.5.391-.91.873-.955h25.112c2.045 0 3.79-1.304 4.466-3.137L46.03.03H9.55z" fill="#fff"/></svg>