<svg width="32" height="32" fill="none" xmlns="http://www.w3.org/2000/svg"><path d="M26.667 17.595v7.738h-4.573v-7.22c0-1.813-.661-3.05-2.316-3.05-1.264 0-2.015.833-2.346 1.64-.12.289-.152.69-.152 1.094v7.536h-4.574s.062-12.228 0-13.495h4.574v1.913c-.01.015-.022.03-.03.044h.03v-.044c.607-.918 1.692-2.23 4.121-2.23 3.01 0 5.266 1.93 5.266 6.074zM7.922 5.333c-1.565 0-2.589 1.007-2.589 2.331 0 1.296.994 2.333 2.528 2.333h.03c1.595 0 2.588-1.037 2.588-2.333-.03-1.324-.993-2.33-2.557-2.33zm-2.317 20h4.572V11.838H5.605v13.495z" fill="#fff"/></svg>