<svg width="32" height="32" fill="none" xmlns="http://www.w3.org/2000/svg"><path d="M13.292 25.333a18.43 18.43 0 01-2.827-.223c-1.683-.262-3.386-1.135-3.868-1.397l-1.264-.686 1.369-.447c1.496-.488 2.406-.79 3.532-1.265-1.128-.543-1.997-1.518-2.416-2.779l-.318-.96.261.04a4.716 4.716 0 01-.594-.728c-.54-.812-.825-1.805-.764-2.656l.06-.837.505.194a4.664 4.664 0 01-.458-1.273 4.814 4.814 0 01.52-3.262l.44-.802.589.702c1.86 2.22 4.217 3.535 7.015 3.92-.114-.781-.029-1.536.255-2.212.33-.788.916-1.455 1.696-1.931a5.126 5.126 0 012.958-.721 4.743 4.743 0 012.904 1.189 9.8 9.8 0 001.063-.353c.233-.087.498-.186.828-.299l1.219-.417-.795 2.254a4.33 4.33 0 01.163-.01l1.302-.06-.77 1.044c-.044.06-.055.077-.07.1-.063.093-.14.209-1.196 1.608-.264.35-.396.807-.371 1.286.093 1.819-.132 3.464-.669 4.89a8.652 8.652 0 01-2.34 3.442c-1.293 1.155-2.94 1.947-4.9 2.351a15.19 15.19 0 01-3.059.298z" fill="#fff"/></svg>